# xmcd
#
# Track frame offsets:
#	150
#	18127
#	71289
#	88347
#	112517
#	126476
#	149414
#	167871
#
# Disc length: 2528 seconds
#
# Revision: 4
# Processed by: cddbd v1.5.2PL0 Copyright (c) Steve Scherf et al.
# Submitted via: audiograbber 1.82.02
#
DISCID=6609de08
DTITLE=The Floaters - Float On
DYEAR=1977
DGENRE=Soul
TTITLE0=Everything Happens For A Reason
TTITLE1=Float On 
TTITLE2=Got To Find A Way
TTITLE3=I Am So Glad I Took My Time
TTITLE4=I Bet You Get The One You Love
TTITLE5=No Stronger Love
TTITLE6=Take One Step At A Time
TTITLE7=You Don't Have To Say You Love Me
EXTD=
EXTT0=
EXTT1=
EXTT2=
EXTT3=
EXTT4=
EXTT5=
EXTT6=
EXTT7=
PLAYORDER=
